<svg xmlns="http://www.w3.org/2000/svg" viewBox="0 0 24 24" fill="none" stroke="#e8e0f0" stroke-width="1.5" stroke-linecap="round" stroke-linejoin="round">
  <circle cx="12" cy="10" r="7"/>
  <path d="M8.5 9C8.5 9 9.5 11 12 11C14.5 11 15.5 9 15.5 9"/>
  <circle cx="10" cy="9" r="0.5" fill="#e8e0f0"/>
  <circle cx="14" cy="9" r="0.5" fill="#e8e0f0"/>
  <path d="M10 12C10 12 11 13 12 13C13 13 14 12 14 12"/>
  <path d="M3 20C5.5 17.5 8 19 9 20"/>
  <path d="M21 20C18.5 17.5 16 19 15 20"/>
  <circle cx="18" cy="16" r="4"/>
  <path d="M20.5 18.5L22 20"/>
</svg>
